<svg aria-hidden="true" style="width:0;height:0;position:absolute;overflow:hidden" xmlns="http://www.w3.org/2000/svg"><defs><symbol id="icon-youtube" viewBox="0 0 32 32"><path d="M24.24 6c-1.36-.08-4.16-.16-8.4-.16h-.56c-4.08 0-6.8.08-8.16.24-1.84.16-3.12.64-3.84 1.28-.64.56-1.12 1.6-1.28 2.96-.08.88-.16 2.72-.16 5.52v.4c0 2.64.08 4.48.24 5.36.24 1.28.64 2.24 1.44 2.8.8.64 2.16 1.04 4.08 1.2 1.36.08 4.16.16 8.4.16h.56c4.08 0 6.8-.08 8.16-.24 1.84-.16 3.12-.64 3.84-1.28.64-.56 1.12-1.6 1.28-2.96.08-.88.16-2.72.16-5.52v-.4c0-2.64-.08-4.48-.24-5.36-.24-1.28-.64-2.24-1.44-2.8-.8-.64-2.16-1.04-4.08-1.2zm-3.12 9.84-8.8 5.28V10.56l8.8 5.28z"/></symbol><symbol id="icon-facebook" viewBox="0 0 17 32"><path d="M13.795 5.312h3.047V.224A43.067 43.067 0 0 0 12.4 0C7.991 0 4.976 2.656 4.976 7.52v4.192H0v5.696h4.976V32h5.965V17.408h4.96l.746-5.696h-5.706V8.08c0-1.68.454-2.768 2.853-2.768z"/></symbol><symbol id="icon-insta" viewBox="0 0 32 32"><path d="M24.544 5.536a1.921 1.921 0 0 0-.375 3.803 1.922 1.922 0 0 0 1.733-3.241 1.921 1.921 0 0 0-1.358-.562zm7.36 3.872a12.145 12.145 0 0 0-.736-3.888 7.907 7.907 0 0 0-1.856-2.832A7.525 7.525 0 0 0 26.48.848a11.698 11.698 0 0 0-3.888-.752C20.896 0 20.352 0 16 0s-4.896 0-6.592.096A11.698 11.698 0 0 0 5.52.848a7.65 7.65 0 0 0-2.832 1.84A7.525 7.525 0 0 0 .848 5.52a11.698 11.698 0 0 0-.752 3.888C0 11.104 0 11.648 0 16s0 4.896.096 6.592c.028 1.329.282 2.644.752 3.888a7.525 7.525 0 0 0 1.84 2.832 7.65 7.65 0 0 0 2.832 1.84c1.244.47 2.559.724 3.888.752C11.104 32 11.648 32 16 32s4.896 0 6.592-.096a11.698 11.698 0 0 0 3.888-.752 7.525 7.525 0 0 0 2.832-1.84 7.761 7.761 0 0 0 1.856-2.832 12.15 12.15 0 0 0 .736-3.888c0-1.696.096-2.24.096-6.592s0-4.896-.096-6.592zM29.024 22.4a8.993 8.993 0 0 1-.544 2.976 4.9 4.9 0 0 1-1.2 1.84 5.107 5.107 0 0 1-1.84 1.2 8.993 8.993 0 0 1-2.976.544c-1.6.08-2.192.096-6.4.096s-4.8 0-6.4-.096a9.168 9.168 0 0 1-3.104-.48 5.233 5.233 0 0 1-1.76-1.2 4.806 4.806 0 0 1-1.184-1.84 8.864 8.864 0 0 1-.64-3.04c0-1.6-.096-2.192-.096-6.4s0-4.8.096-6.4a8.87 8.87 0 0 1 .56-3.04A4.81 4.81 0 0 1 4.8 4.8a5.027 5.027 0 0 1 1.76-1.28 9.16 9.16 0 0 1 3.04-.544c1.6 0 2.192-.096 6.4-.096s4.8 0 6.4.096a8.993 8.993 0 0 1 2.976.544A4.9 4.9 0 0 1 27.28 4.8a4.902 4.902 0 0 1 1.2 1.76c.356.974.54 2.003.544 3.04.08 1.6.096 2.192.096 6.4s-.016 4.8-.096 6.4zM16 7.792a8.206 8.206 0 0 0-8.033 9.819c.318 1.591 1.101 3.052 2.25 4.198s2.611 1.926 4.203 2.242A8.21 8.21 0 0 0 24.223 16a8.188 8.188 0 0 0-5.076-7.592 8.194 8.194 0 0 0-3.148-.616zm0 13.536a5.33 5.33 0 0 1-4.922-3.289 5.326 5.326 0 0 1 3.883-7.264 5.333 5.333 0 0 1 5.469 2.265 5.33 5.33 0 0 1-2.391 7.883 5.324 5.324 0 0 1-2.039.405z"/></symbol><symbol id="icon-korablic" viewBox="0 0 32 32"><mask id="mask0_3500_15" style="mask-type:alpha" maskUnits="userSpaceOnUse" x="0" y="0" width="23" height="23"><path d="M0 18.415 5.188 23h15.22l2.18-3.062L.002 18.415H0ZM13.402 0v18.278l7.005.482L13.402 0Zm-.954 3.08L2.328 17.481l10.12.683V3.08Z"/></mask><g mask="url('#mask0_3500_15')"><path d="M0 0h23v23H0V0Z" fill="url('#paint0_linear_3500_15')"/></g><defs><linearGradient id="paint0_linear_3500_15" x1="9.794" y1="0" x2="21.541" y2=".444" gradientUnits="userSpaceOnUse"><stop stop-color="#BEC7C2"/><stop offset="1" stop-color="#A1B5BA"/></linearGradient></defs></symbol></defs></svg><svg id="arrow" width="18" height="10" fill="none" xmlns="http://www.w3.org/2000/svg"><path fill-rule="evenodd" clip-rule="evenodd" d="M12.5.67 18 5l-5.5 4.33V5.75H0v-1.5h12.5V.67Z" fill="#F6F5EF"/></svg>