<svg aria-hidden="true" style="position: absolute; width: 0; height: 0; overflow: hidden;" version="1.1" xmlns="http://www.w3.org/2000/svg" xmlns:xlink="http://www.w3.org/1999/xlink">
<defs>
<symbol id="icon-youtube" viewBox="0 0 32 32">
<path d="M24.24 6c-1.36-0.080-4.16-0.16-8.4-0.16h-0.56c-4.080 0-6.8 0.080-8.16 0.24-1.84 0.16-3.12 0.64-3.84 1.28-0.64 0.56-1.12 1.6-1.28 2.96-0.080 0.88-0.16 2.72-0.16 5.52v0.4c0 2.64 0.080 4.48 0.24 5.36 0.24 1.28 0.64 2.24 1.44 2.8 0.8 0.64 2.16 1.040 4.080 1.2 1.36 0.080 4.16 0.16 8.4 0.16h0.56c4.080 0 6.8-0.080 8.16-0.24 1.84-0.16 3.12-0.64 3.84-1.28 0.64-0.56 1.12-1.6 1.28-2.96 0.080-0.88 0.16-2.72 0.16-5.52v-0.4c0-2.64-0.080-4.48-0.24-5.36-0.24-1.28-0.64-2.24-1.44-2.8-0.8-0.64-2.16-1.040-4.080-1.2zM21.12 15.84l-8.8 5.28v-10.56l8.8 5.28z"></path>
</symbol>
<symbol id="icon-facebook" viewBox="0 0 17 32">
<path d="M13.795 5.312h3.047v-5.088c-1.476-0.151-2.958-0.226-4.442-0.224-4.409 0-7.424 2.656-7.424 7.52v4.192h-4.976v5.696h4.976v14.592h5.965v-14.592h4.96l0.746-5.696h-5.706v-3.632c0-1.68 0.454-2.768 2.853-2.768z"></path>
</symbol>
<symbol id="icon-insta" viewBox="0 0 32 32">
<path d="M24.544 5.536c-0.38 0-0.751 0.113-1.067 0.324s-0.562 0.511-0.707 0.862c-0.145 0.351-0.183 0.737-0.109 1.109s0.257 0.715 0.525 0.983c0.269 0.268 0.611 0.451 0.983 0.525s0.759 0.036 1.109-0.109c0.351-0.145 0.651-0.391 0.862-0.707s0.324-0.687 0.324-1.067c0-0.509-0.202-0.998-0.562-1.358s-0.849-0.562-1.358-0.562zM31.904 9.408c-0.031-1.328-0.28-2.641-0.736-3.888-0.407-1.067-1.040-2.033-1.856-2.832-0.792-0.82-1.761-1.449-2.832-1.84-1.244-0.47-2.559-0.724-3.888-0.752-1.696-0.096-2.24-0.096-6.592-0.096s-4.896 0-6.592 0.096c-1.329 0.028-2.644 0.282-3.888 0.752-1.069 0.395-2.037 1.023-2.832 1.84-0.82 0.792-1.449 1.761-1.84 2.832-0.47 1.244-0.724 2.559-0.752 3.888-0.096 1.696-0.096 2.24-0.096 6.592s0 4.896 0.096 6.592c0.028 1.329 0.282 2.644 0.752 3.888 0.391 1.071 1.020 2.040 1.84 2.832 0.795 0.817 1.763 1.445 2.832 1.84 1.244 0.47 2.559 0.724 3.888 0.752 1.696 0.096 2.24 0.096 6.592 0.096s4.896 0 6.592-0.096c1.329-0.028 2.644-0.282 3.888-0.752 1.071-0.391 2.040-1.020 2.832-1.84 0.82-0.796 1.453-1.763 1.856-2.832 0.456-1.247 0.705-2.561 0.736-3.888 0-1.696 0.096-2.24 0.096-6.592s0-4.896-0.096-6.592zM29.024 22.4c-0.012 1.016-0.196 2.022-0.544 2.976-0.255 0.696-0.666 1.325-1.2 1.84-0.519 0.529-1.147 0.938-1.84 1.2-0.954 0.348-1.96 0.532-2.976 0.544-1.6 0.080-2.192 0.096-6.4 0.096s-4.8 0-6.4-0.096c-1.055 0.020-2.105-0.143-3.104-0.48-0.663-0.275-1.262-0.684-1.76-1.2-0.531-0.514-0.936-1.144-1.184-1.84-0.391-0.968-0.607-1.997-0.64-3.040 0-1.6-0.096-2.192-0.096-6.4s0-4.8 0.096-6.4c0.007-1.038 0.197-2.067 0.56-3.040 0.282-0.675 0.714-1.277 1.264-1.76 0.486-0.55 1.087-0.987 1.76-1.28 0.975-0.352 2.003-0.536 3.040-0.544 1.6 0 2.192-0.096 6.4-0.096s4.8 0 6.4 0.096c1.016 0.012 2.022 0.196 2.976 0.544 0.727 0.27 1.38 0.709 1.904 1.28 0.524 0.492 0.934 1.092 1.2 1.76 0.356 0.974 0.54 2.003 0.544 3.040 0.080 1.6 0.096 2.192 0.096 6.4s-0.016 4.8-0.096 6.4zM16 7.792c-1.623 0.003-3.208 0.487-4.556 1.391s-2.397 2.187-3.016 3.687c-0.619 1.5-0.779 3.15-0.461 4.741s1.101 3.052 2.25 4.198 2.611 1.926 4.203 2.242c1.592 0.316 3.241 0.152 4.74-0.47s2.78-1.674 3.681-3.023c0.901-1.349 1.382-2.936 1.382-4.558 0.002-1.080-0.209-2.149-0.622-3.147s-1.019-1.904-1.783-2.667c-0.764-0.763-1.672-1.367-2.671-1.778s-2.069-0.62-3.148-0.616zM16 21.328c-1.054 0-2.084-0.313-2.96-0.898s-1.559-1.418-1.962-2.391c-0.403-0.974-0.509-2.045-0.303-3.078s0.713-1.983 1.458-2.728c0.745-0.745 1.694-1.253 2.728-1.458s2.105-0.1 3.078 0.303c0.974 0.403 1.806 1.086 2.391 1.962s0.898 1.906 0.898 2.96c0 0.7-0.138 1.392-0.405 2.039s-0.66 1.234-1.155 1.729c-0.495 0.495-1.082 0.887-1.729 1.155s-1.339 0.405-2.039 0.405z"></path>
</symbol>
<symbol id="icon-korablic" viewBox="0 0 32 32">
    <mask id="mask0_3500_15" style="mask-type:alpha" maskUnits="userSpaceOnUse" x="0" y="0" width="23" height="23">
    <path d="M0 18.4153L5.18842 23H20.4087L22.5879 19.9381L0.00191667 18.4153H0ZM13.4023 0V18.2783L20.4068 18.7603L13.4023 0ZM12.4478 3.08008L2.32779 17.481L12.4478 18.1642V3.08008Z" fill="black" />
  </mask>
  <g mask="url(#mask0_3500_15)">
    <path d="M0 0H23V23H0V0Z" fill="url(#paint0_linear_3500_15)" />
  </g>
  <defs>
    <linearGradient id="paint0_linear_3500_15" x1="9.79396" y1="3.48665e-06" x2="21.5409" y2="0.444325" gradientUnits="userSpaceOnUse">
      <stop stop-color="#BEC7C2" />
      <stop offset="1" stop-color="#A1B5BA" />
    </linearGradient>
  </defs>
</symbol>
</defs>
</svg>
<svg id="arrow" width="18" height="10" viewBox="0 0 18 10" fill="none" xmlns="http://www.w3.org/2000/svg">
  <path fill-rule="evenodd" clip-rule="evenodd" d="M12.5 0.669922L18 5.00005L12.5 9.33018V5.75005L0 5.75005L0 4.25005L12.5 4.25005V0.669922Z" fill="#F6F5EF" />
</svg>